{
  "accessors": [
    {
      "bufferView": 0,
      "componentType": 5126,
      "count": 1236,
      "max": [
        12.277128219604492,
        2.7289178371429443,
        1.5369000434875488
      ],
      "min": [
        0.2015693187713623,
        -9.057602882385254,
        0.0
      ],
      "type": "VEC3"
    },
    {
      "bufferView": 0,
      "byteOffset": 12,
      "componentType": 5126,
      "count": 1236,
      "type": "VEC3"
    },
    {
      "bufferView": 1,
      "componentType": 5125,
      "count": 5364,
      "type": "SCALAR"
    },
    {
      "bufferView": 2,
      "componentType": 5126,
      "count": 240,
      "max": [
        7.462158203125,
        4.334099769592285,
        1.3102763891220093
      ],
      "min": [
        -5.465341567993164,
        -4.382802963256836,
        0.18972361087799072
      ],
      "type": "VEC3"
    },
    {
      "bufferView": 2,
      "byteOffset": 12,
      "componentType": 5126,
      "count": 240,
      "type": "VEC3"
    },
    {
      "bufferView": 3,
      "componentType": 5125,
      "count": 696,
      "type": "SCALAR"
    },
    {
      "bufferView": 4,
      "componentType": 5126,
      "count": 12636,
      "max": [
        23.792112350463867,
        0.6500637531280518,
        2.740818977355957
      ],
      "min": [
        -1.8683433532714844,
        -9.95003890991211,
        -1.2408188581466675
      ],
      "type": "VEC3"
    },
    {
      "bufferView": 4,
      "byteOffset": 12,
      "componentType": 5126,
      "count": 12636,
      "type": "VEC3"
    },
    {
      "bufferView": 5,
      "componentType": 5125,
      "count": 37428,
      "type": "SCALAR"
    }
  ],
  "asset": {
    "version": "2.0"
  },
  "bufferViews": [
    {
      "buffer": 0,
      "byteLength": 29664,
      "byteStride": 24,
      "target": 34962
    },
    {
      "buffer": 0,
      "byteLength": 21456,
      "byteOffset": 29664,
      "target": 34963
    },
    {
      "buffer": 0,
      "byteLength": 5760,
      "byteOffset": 51120,
      "byteStride": 24,
      "target": 34962
    },
    {
      "buffer": 0,
      "byteLength": 2784,
      "byteOffset": 56880,
      "target": 34963
    },
    {
      "buffer": 0,
      "byteLength": 303264,
      "byteOffset": 59664,
      "byteStride": 24,
      "target": 34962
    },
    {
      "buffer": 0,
      "byteLength": 149712,
      "byteOffset": 362928,
      "target": 34963
    }
  ],
  "buffers": [
    {
      "byteLength": 512640,
      "uri": "2.2.bin"
    }
  ],
  "materials": [
    {
      "name": "Material__25",
      "pbrMetallicRoughness": {
        "baseColorFactor": [
          1.0,
          0.0,
          0.0,
          1.0
        ],
        "metallicFactor": 0.0,
        "roughnessFactor": 0.0
      }
    },
    {
      "emissiveFactor": [
        1.0,
        1.0,
        1.0
      ],
      "name": "Material__34",
      "pbrMetallicRoughness": {
        "baseColorFactor": [
          0.5,
          0.5,
          0.5,
          1.0
        ],
        "metallicFactor": 0.0,
        "roughnessFactor": 0.0
      }
    },
    {
      "name": "fallback Material",
      "pbrMetallicRoughness": {
        "baseColorFactor": [
          0.6941176470588235,
          0.10588235294117647,
          0.34509803921568627,
          1.0
        ]
      }
    }
  ],
  "meshes": [
    {
      "name": "TextPlus002",
      "primitives": [
        {
          "attributes": {
            "NORMAL": 1,
            "POSITION": 0
          },
          "indices": 2,
          "material": 0,
          "mode": 4
        }
      ]
    },
    {
      "name": "Line001",
      "primitives": [
        {
          "attributes": {
            "NORMAL": 4,
            "POSITION": 3
          },
          "indices": 5,
          "material": 1,
          "mode": 4
        }
      ]
    },
    {
      "name": "Freehand001",
      "primitives": [
        {
          "attributes": {
            "NORMAL": 7,
            "POSITION": 6
          },
          "indices": 8,
          "material": 2,
          "mode": 4
        }
      ]
    }
  ],
  "nodes": [
    {
      "matrix": [
        0.0254,
        0.0,
        0.0,
        0.0,
        0.0,
        0.0254,
        0.0,
        0.0,
        0.0,
        0.0,
        0.0254,
        0.0,
        0.0,
        0.0,
        0.0,
        1.0
      ],
      "mesh": 0,
      "name": "TextPlus002"
    },
    {
      "children": [
        0
      ],
      "matrix": [
        0.9703015685081482,
        0.0,
        0.0,
        0.0,
        0.0,
        0.0,
        -0.9703015685081482,
        0.0,
        0.0,
        0.9703015685081482,
        0.0,
        0.0,
        0.019311587715148924,
        0.0005727136492729187,
        -0.163158899974823,
        1.0
      ]
    },
    {
      "matrix": [
        0.0254,
        0.0,
        0.0,
        0.0,
        0.0,
        0.0254,
        0.0,
        0.0,
        0.0,
        0.0,
        0.0254,
        0.0,
        0.0,
        0.0,
        0.0,
        1.0
      ],
      "mesh": 1,
      "name": "Line001"
    },
    {
      "children": [
        2
      ],
      "matrix": [
        0.9703015685081482,
        0.0,
        0.0,
        0.0,
        0.0,
        0.0,
        -0.9703015685081482,
        0.0,
        0.0,
        0.9703015685081482,
        0.0,
        0.0,
        -0.19396747245788573,
        0.0005727151632308959,
        -0.1222913363456726,
        1.0
      ]
    },
    {
      "matrix": [
        0.0254,
        0.0,
        0.0,
        0.0,
        0.0,
        0.0254,
        0.0,
        0.0,
        0.0,
        0.0,
        0.0254,
        0.0,
        0.0,
        0.0,
        0.0,
        1.0
      ],
      "mesh": 2,
      "name": "Freehand001"
    },
    {
      "children": [
        4
      ],
      "matrix": [
        1.0,
        0.0,
        0.0,
        0.0,
        0.0,
        0.0,
        -1.0,
        0.0,
        0.0,
        1.0,
        0.0,
        0.0,
        -0.2655936237335205,
        0.0,
        0.13466040935516357,
        1.0
      ]
    }
  ],
  "scenes": [
    {
      "nodes": [
        1,
        3,
        5
      ]
    }
  ]
}
