{
  "accessors": [
    {
      "bufferView": 0,
      "componentType": 5126,
      "count": 2877,
      "max": [
        11.422422409057617,
        6.293529033660889,
        1.5369000434875488
      ],
      "min": [
        0.2015693187713623,
        -5.695833683013916,
        0.0
      ],
      "type": "VEC3"
    },
    {
      "bufferView": 0,
      "byteOffset": 12,
      "componentType": 5126,
      "count": 2877,
      "type": "VEC3"
    },
    {
      "bufferView": 1,
      "componentType": 5125,
      "count": 12720,
      "type": "SCALAR"
    },
    {
      "bufferView": 2,
      "componentType": 5126,
      "count": 1087,
      "max": [
        4.909360885620117,
        4.909361362457275,
        0.19326011836528778
      ],
      "min": [
        -4.909360885620117,
        -4.909360408782959,
        -0.9861327409744263
      ],
      "type": "VEC3"
    },
    {
      "bufferView": 2,
      "byteOffset": 12,
      "componentType": 5126,
      "count": 1087,
      "type": "VEC3"
    },
    {
      "bufferView": 3,
      "componentType": 5125,
      "count": 1152,
      "type": "SCALAR"
    }
  ],
  "asset": {
    "version": "2.0"
  },
  "bufferViews": [
    {
      "buffer": 0,
      "byteLength": 69048,
      "byteStride": 24,
      "target": 34962
    },
    {
      "buffer": 0,
      "byteLength": 50880,
      "byteOffset": 69048,
      "target": 34963
    },
    {
      "buffer": 0,
      "byteLength": 34784,
      "byteOffset": 119928,
      "byteStride": 32,
      "target": 34962
    },
    {
      "buffer": 0,
      "byteLength": 4608,
      "byteOffset": 154712,
      "target": 34963
    }
  ],
  "buffers": [
    {
      "byteLength": 159320,
      "uri": "1.9.bin"
    }
  ],
  "materials": [
    {
      "name": "Material__25",
      "pbrMetallicRoughness": {
        "baseColorFactor": [
          1.0,
          0.0,
          0.0,
          1.0
        ],
        "metallicFactor": 0.0,
        "roughnessFactor": 0.0
      }
    },
    {
      "emissiveFactor": [
        1.0,
        1.0,
        1.0
      ],
      "name": "Material__34",
      "pbrMetallicRoughness": {
        "baseColorFactor": [
          0.5,
          0.5,
          0.5,
          1.0
        ],
        "metallicFactor": 0.0,
        "roughnessFactor": 0.0
      }
    }
  ],
  "meshes": [
    {
      "name": "TextPlus001",
      "primitives": [
        {
          "attributes": {
            "NORMAL": 1,
            "POSITION": 0
          },
          "indices": 2,
          "material": 0,
          "mode": 4
        }
      ]
    },
    {
      "name": "Torus001",
      "primitives": [
        {
          "attributes": {
            "NORMAL": 4,
            "POSITION": 3
          },
          "indices": 5,
          "material": 1,
          "mode": 4
        }
      ]
    }
  ],
  "nodes": [
    {
      "matrix": [
        0.0254,
        0.0,
        0.0,
        0.0,
        0.0,
        0.0254,
        0.0,
        0.0,
        0.0,
        0.0,
        0.0254,
        0.0,
        0.0,
        0.0,
        0.0,
        1.0
      ],
      "mesh": 0,
      "name": "TextPlus001"
    },
    {
      "children": [
        0
      ],
      "matrix": [
        1.0,
        0.0,
        0.0,
        0.0,
        0.0,
        0.0,
        -1.0,
        0.0,
        0.0,
        1.0,
        0.0,
        0.0,
        0.0,
        0.0,
        0.0,
        1.0
      ]
    },
    {
      "matrix": [
        0.0254,
        0.0,
        0.0,
        0.0,
        0.0,
        0.0254,
        0.0,
        0.0,
        0.0,
        0.0,
        0.0254,
        0.0,
        0.0,
        0.0,
        0.0,
        1.0
      ],
      "mesh": 1,
      "name": "Torus001"
    },
    {
      "children": [
        2
      ],
      "matrix": [
        1.0,
        0.0,
        0.0,
        0.0,
        0.0,
        0.0,
        -1.0,
        0.0,
        0.0,
        1.0,
        0.0,
        0.0,
        -0.15576764812469482,
        0.025047771620750427,
        0.0033171788215637208,
        1.0
      ]
    }
  ],
  "scenes": [
    {
      "nodes": [
        1,
        3
      ]
    }
  ]
}
